<svg xmlns="http://www.w3.org/2000/svg" xmlns:xlink="http://www.w3.org/1999/xlink" version="1.1" x="0px" y="0px" viewBox="0 0 90 112.5" enable-background="new 0 0 90 90" xml:space="preserve"><path d="M60.1,32c0-0.9,0-0.4,0-0.5c0-4.8-3.5-8.8-9.1-8.8V32H60.1z"/><path d="M42.1,32c0,5.1,4.9,9.3,8.9,9.3V32C51,32,42.1,31.9,42.1,32z"/><path d="M63.2,31.6c0,6.8-5.5,12.2-12.2,12.2s-12.2-5.5-12.2-12.2S44.2,19.4,51,19.4S63.2,24.9,63.2,31.6z M67.6,49.4  c3.9,0.2,7.7-1.8,9.7-5.2c1.7-3,2.7-6.2,2.7-9.5C79.9,18.3,67.5,5,50.6,5C31,5,19.1,18.3,19.1,34.6c0,0-0.6,1.6-0.7,1.9l-6.1,10.7  c-0.6,1.1-0.1,2.4,1,2.9l2.7,1c0.6,0.2,0.8,0.9,0.5,1.4l-1,1.8c-0.3,0.5-0.2,1.2,0.2,1.6l0.8,1c0.2,0.3,0.3,0.7,0,1L16,58.7  c-0.5,0.7-0.3,1.7,0.5,2.2l0.7,0.4c0.5,0.3,0.7,0.8,0.7,1.3l-0.1,6c-0.1,3.1,3.1,5.1,5.9,3.9l19.6-9c1.4-0.6,2.4-1.8,2.8-3.3  l2.9-9.6c0.4-1.3,1.7-2.2,3.1-2.2L67.6,49.4z"/><path d="M51.7,56.5l11.2,0.9c0.6,0,1.1-0.3,1.3-0.9l0.5-1.8c0.2-0.8-0.3-1.5-1.1-1.6l-11.2-0.8c-0.6,0-1.1,0.3-1.3,0.9l-0.5,1.7  C50.4,55.7,50.9,56.5,51.7,56.5z"/><path d="M48.6,64.5l13.2-0.7c0.6,0,1.1-0.5,1.2-1.1l0.2-1.3c0.1-0.7-0.5-1.4-1.2-1.4L50,59.4c-0.4,0-0.7,0.2-0.8,0.6l-0.6,2.2  c-0.1,0.4-0.3,0.7-0.5,0.9l0,0C47.5,63.7,47.9,64.6,48.6,64.5z"/><path d="M34.3,75.6L62,70.2c0.5-0.1,0.8-0.5,0.8-1l0-1.9c0-0.6-0.5-1-1.1-1l-23.1,2.5c-0.1,0-0.2,0-0.3,0.1l-4.7,2.2  c-0.4,0.2-0.6,0.6-0.6,1l0.2,2.5C33.2,75.2,33.8,75.7,34.3,75.6z"/><path d="M36.9,85.9L63,76.4c0.4-0.2,0.7-0.6,0.6-1.1l-0.4-2c-0.1-0.6-0.7-0.9-1.2-0.8l-27,6.8c-0.5,0.1-0.8,0.7-0.7,1.2l1.3,4.6  C35.8,85.8,36.4,86.1,36.9,85.9z"/><text x="0" y="105" fill="#000000" font-size="5px" font-weight="bold" font-family="'Helvetica Neue', Helvetica, Arial-Unicode, Arial, Sans-serif">Created by Petr Papasov</text><text x="0" y="110" fill="#000000" font-size="5px" font-weight="bold" font-family="'Helvetica Neue', Helvetica, Arial-Unicode, Arial, Sans-serif">from the Noun Project</text></svg>