<?xml version="1.0" standalone="yes"?>

<svg version="1.1" viewBox="0.0 0.0 1281.6325459317586 278.3254593175853" fill="none" stroke="none" stroke-linecap="square" stroke-miterlimit="10" xmlns="http://www.w3.org/2000/svg" xmlns:xlink="http://www.w3.org/1999/xlink"><clipPath id="p.0"><path d="m0 0l1281.6326 0l0 278.32547l-1281.6326 0l0 -278.32547z" clip-rule="nonzero"></path></clipPath><g clip-path="url(#p.0)"><path fill="#000000" fill-opacity="0.0" d="m0 0l1281.6326 0l0 278.32547l-1281.6326 0z" fill-rule="evenodd"></path><path fill="#8c3123" d="m244.34503 47.03579l-18.31009 9.158989l0 160.71605l18.31009 9.098526l0.114349365 -0.13275146l0 -178.71725l-0.114349365 -0.123558044z" fill-rule="evenodd"></path><path fill="#e05243" d="m244.34503 47.03579l0 178.97357l97.999054 -23.322037l0 -132.8316l-97.999054 -22.819916z" fill-rule="evenodd"></path><path fill="#8c3123" d="m339.67578 102.16059l-41.570343 5.2143707l0 58.78814l41.570343 5.293228l0.25500488 -0.59806824l0.23791504 -68.160065l-0.49291992 -0.5376053z" fill-rule="evenodd"></path><path fill="#8c3123" d="m434.99734 47.03579l-95.32156 23.07492l0 132.8316l95.33078 23.119614l0.14984131 -0.23791504l-0.009216309 -178.6305l-0.14984131 -0.15773392z" fill-rule="evenodd"></path><path fill="#e05243" d="m339.67578 102.16059l0 69.29574l41.57956 -5.293228l0 -58.78814l-41.57956 -5.2143707z" fill-rule="evenodd"></path><path fill="#5e1f18" d="m339.62323 68.06808l-41.51779 10.876953l41.570343 7.5829773l41.57956 -7.5829773l-41.63211 -10.876953z" fill-rule="evenodd"></path><path fill="#f2b0a9" d="m339.67578 186.88649l-41.570343 7.6276703l41.51779 11.590698l41.63211 -11.590698l-41.57956 -7.6276703z" fill-rule="evenodd"></path><path fill="#8c3123" d="m339.67578 -0.6295921l-41.570343 20.785172l0 58.78945l41.570343 -10.288086l0.33520508 -0.095954895l0 -68.909294l-0.33520508 -0.28128922z" fill-rule="evenodd"></path><path fill="#e05243" d="m339.67578 -0.6295921l0 69.28654l41.57956 10.288086l0 -58.78945l-41.57956 -20.785172z" fill-rule="evenodd"></path><path fill="#8c3123" d="m298.10544 194.52336l0 58.78813l41.570343 20.777283l0.44033813 -1.198761l0.16693115 -67.39374l-0.6072693 -0.695343l-41.570343 -10.277573z" fill-rule="evenodd"></path><path fill="#e05243" d="m435.00656 47.03579l0 179.02615l18.31009 -9.151108l0 -160.71605l-18.31009 -9.158989zm-53.760437 147.48758l-41.570343 10.277573l0 69.28784l41.570343 -20.777283l0 -58.78813z" fill-rule="evenodd"></path><path fill="#f6d2a2" d="m10.876266 148.70345c0.37203503 8.143127 8.513762 4.3825226 12.192464 1.8199158c3.513506 -2.3974 4.546318 -0.37202454 4.8364506 -5.1668396c0.20684052 -3.1414642 0.5788746 -6.241287 0.37203407 -9.382767c-5.290388 -0.49557495 -11.036102 0.74406433 -15.375581 3.927185c-2.2322083 1.6116943 -6.406492 6.778534 -2.0253677 8.8025055z" fill-rule="evenodd"></path><path stroke="#000000" stroke-width="2.968503937007874" stroke-miterlimit="29.774" stroke-linecap="round" d="m10.876266 148.70345c0.37203503 8.143127 8.513762 4.3825226 12.192464 1.8199158c3.513506 -2.3974 4.546318 -0.37202454 4.8364506 -5.1668396c0.20684052 -3.1414642 0.5788746 -6.241287 0.37203407 -9.382767c-5.290388 -0.49557495 -11.036102 0.74406433 -15.375581 3.927185c-2.2322083 1.6116943 -6.406492 6.778534 -2.0253677 8.8025055z" fill-rule="evenodd"></path><path fill="#c6b198" d="m10.876266 148.70345c1.1980076 -0.41229248 2.4390478 -0.7426758 3.2233753 -1.8185272" fill-rule="evenodd"></path><path fill="#000000" fill-opacity="0.0" d="m10.876266 148.70345c1.1980076 -0.41229248 2.4390478 -0.7426758 3.2233753 -1.8185272" fill-rule="evenodd"></path><path stroke="#000000" stroke-width="2.968503937007874" stroke-miterlimit="29.774" stroke-linecap="round" d="m10.876266 148.70345c1.1980076 -0.41229248 2.4390478 -0.7426758 3.2233753 -1.8185272" fill-rule="evenodd"></path><path fill="#6ad7e5" d="m29.640415 51.780094c-31.121807 -8.762249 -7.976534 -48.399208 17.028915 -32.114365z" fill-rule="evenodd"></path><path stroke="#000000" stroke-width="2.968503937007874" stroke-miterlimit="29.774" stroke-linecap="round" d="m29.640415 51.780094c-31.121807 -8.762249 -7.976534 -48.399208 17.028915 -32.114365z" fill-rule="evenodd"></path><path fill="#6ad7e5" d="m168.06229 16.689453c24.675064 -17.317657 46.95273 21.782074 18.310211 31.618782z" fill-rule="evenodd"></path><path stroke="#000000" stroke-width="2.968503937007874" stroke-miterlimit="29.774" stroke-linecap="round" d="m168.06229 16.689453c24.675064 -17.317657 46.95273 21.782074 18.310211 31.618782z" fill-rule="evenodd"></path><path fill="#f6d2a2" d="m173.39294 248.85156c6.241287 3.8855438 17.69107 15.624084 8.308304 21.286499c-9.050995 8.266663 -14.094284 -9.052399 -22.029175 -11.490051c3.4302216 -4.629608 7.769699 -8.845535 13.720871 -9.796448z" fill-rule="evenodd"></path><path stroke="#000000" stroke-width="2.968503937007874" stroke-miterlimit="29.774" stroke-linecap="round" d="m173.39294 248.85156c6.241287 3.8855438 17.69107 15.624084 8.308304 21.286499c-9.050995 8.266663 -14.094284 -9.052399 -22.029175 -11.490051c3.4302216 -4.629608 7.769699 -8.845535 13.720871 -9.796448z" fill-rule="evenodd"></path><path fill="#000000" fill-opacity="0.0" d="m181.70125 270.13806c-1.4048462 -2.7694397 -1.8601685 -5.9942017 -4.215927 -8.225037" fill-rule="evenodd"></path><path stroke="#000000" stroke-width="2.968503937007874" stroke-miterlimit="29.774" stroke-linecap="round" d="m181.70125 270.13806c-1.4048462 -2.7694397 -1.8601685 -5.9942017 -4.215927 -8.225037" fill-rule="evenodd"></path><path fill="#f6d2a2" d="m61.466038 262.11987c-7.3560143 1.1147156 -11.49004 7.769684 -17.606403 11.118011c-5.7873573 3.4302063 -7.9779205 -1.1161194 -8.515148 -2.02536c-0.9092636 -0.4136963 -0.8259735 0.37200928 -2.2322083 -1.0342102c-5.3306465 -8.430481 5.580517 -14.589874 11.284588 -18.805801c7.934887 -1.6116791 12.894886 5.29039 17.069172 10.74736z" fill-rule="evenodd"></path><path stroke="#000000" stroke-width="2.968503937007874" stroke-miterlimit="29.774" stroke-linecap="round" d="m61.466038 262.11987c-7.3560143 1.1147156 -11.49004 7.769684 -17.606403 11.118011c-5.7873573 3.4302063 -7.9779205 -1.1161194 -8.515148 -2.02536c-0.9092636 -0.4136963 -0.8259735 0.37200928 -2.2322083 -1.0342102c-5.3306465 -8.430481 5.580517 -14.589874 11.284588 -18.805801c7.934887 -1.6116791 12.894886 5.29039 17.069172 10.74736z" fill-rule="evenodd"></path><path fill="#000000" fill-opacity="0.0" d="m35.344486 271.21252c0.29013062 -3.224762 2.852726 -5.3736877 4.0507355 -8.101471" fill-rule="evenodd"></path><path stroke="#000000" stroke-width="2.968503937007874" stroke-miterlimit="29.774" stroke-linecap="round" d="m35.344486 271.21252c0.29013062 -3.224762 2.852726 -5.3736877 4.0507355 -8.101471" fill-rule="evenodd"></path><path fill="#000000" d="m30.96336 40.827282c-4.132639 -2.1905594 -7.1089153 -5.1251907 -4.62961 -9.878351c2.3571453 -4.4227695 6.654978 -3.9257984 10.787615 -1.7768822z" fill-rule="evenodd"></path><path fill="#000000" d="m179.84108 36.694645c4.134018 -2.1905632 7.1505585 -5.1251945 4.629608 -9.878353c-2.3141174 -4.4227695 -6.6549835 -3.927187 -10.745972 -1.7782688z" fill-rule="evenodd"></path><path fill="#f6d2a2" d="m208.15318 147.67064c-0.41229248 8.143112 -8.513763 4.381119 -12.192459 1.8185272c-3.513504 -2.3974 -4.5463104 -0.3720398 -4.8350677 -5.1668396c-0.20683289 -3.140091 -0.5788727 -6.239914 -0.37202454 -9.381378c5.2487335 -0.49697876 11.034714 0.74406433 15.333939 3.9257965c2.2322083 1.6116791 6.446747 6.7785187 2.0656128 8.803894z" fill-rule="evenodd"></path><path stroke="#000000" stroke-width="2.968503937007874" stroke-miterlimit="29.774" stroke-linecap="round" d="m208.15318 147.67064c-0.41229248 8.143112 -8.513763 4.381119 -12.192459 1.8185272c-3.513504 -2.3974 -4.5463104 -0.3720398 -4.8350677 -5.1668396c-0.20683289 -3.140091 -0.5788727 -6.239914 -0.37202454 -9.381378c5.2487335 -0.49697876 11.034714 0.74406433 15.333939 3.9257965c2.2322083 1.6116791 6.446747 6.7785187 2.0656128 8.803894z" fill-rule="evenodd"></path><path fill="#c6b198" d="m208.15318 147.67064c-1.197998 -0.41368103 -2.4376526 -0.7440796 -3.2233734 -1.8185272" fill-rule="evenodd"></path><path fill="#000000" fill-opacity="0.0" d="m208.15318 147.67064c-1.197998 -0.41368103 -2.4376526 -0.7440796 -3.2233734 -1.8185272" fill-rule="evenodd"></path><path stroke="#000000" stroke-width="2.968503937007874" stroke-miterlimit="29.774" stroke-linecap="round" d="m208.15318 147.67064c-1.197998 -0.41368103 -2.4376526 -0.7440796 -3.2233734 -1.8185272" fill-rule="evenodd"></path><path fill="#6ad7e5" d="m106.394775 0.23941417c31.163452 0 60.426468 4.4644156 75.67851 34.429863c13.680603 33.560856 8.803894 69.80925 10.870895 105.27191c1.8185425 30.504074 5.78598 65.71826 -8.349945 93.94847c-14.878616 29.716965 -52.03627 37.199295 -82.66388 36.083206c-24.054543 -0.82736206 -53.110725 -8.680359 -66.70943 -30.669266c-15.912811 -25.791168 -8.390215 -64.10518 -7.2338524 -92.79071c1.4062347 -33.97454 -9.174541 -68.07263 1.9851093 -101.30449c11.571943 -34.511765 42.818695 -42.324493 76.422585 -44.968994z" fill-rule="evenodd"></path><path stroke="#000000" stroke-width="2.968503937007874" stroke-miterlimit="29.774" stroke-linecap="round" d="m106.394775 0.23941417c31.163452 0 60.426468 4.4644156 75.67851 34.429863c13.680603 33.560856 8.803894 69.80925 10.870895 105.27191c1.8185425 30.504074 5.78598 65.71826 -8.349945 93.94847c-14.878616 29.716965 -52.03627 37.199295 -82.66388 36.083206c-24.054543 -0.82736206 -53.110725 -8.680359 -66.70943 -30.669266c-15.912811 -25.791168 -8.390215 -64.10518 -7.2338524 -92.79071c1.4062347 -33.97454 -9.174541 -68.07263 1.9851093 -101.30449c11.571943 -34.511765 42.818695 -42.324493 76.422585 -44.968994z" fill-rule="evenodd"></path><path fill="#ffffff" d="m111.892 42.10858c5.620781 32.569687 58.81479 23.930992 51.168655 -8.885796c-6.8618317 -29.428219 -53.028824 -21.286491 -51.168655 8.885796z" fill-rule="evenodd"></path><path stroke="#000000" stroke-width="2.8136482939632543" stroke-miterlimit="29.774" stroke-linecap="round" d="m111.892 42.10858c5.620781 32.569687 58.81479 23.930992 51.168655 -8.885796c-6.8618317 -29.428219 -53.028824 -21.286491 -51.168655 8.885796z" fill-rule="evenodd"></path><path fill="#ffffff" d="m48.322662 47.357323c7.2338524 28.35376 52.61653 21.07965 50.921547 -7.315754c-2.067009 -34.056442 -57.86527 -27.484753 -50.921547 7.315754z" fill-rule="evenodd"></path><path stroke="#000000" stroke-width="2.7349081364829395" stroke-miterlimit="29.774" stroke-linecap="round" d="m48.322662 47.357323c7.2338524 28.35376 52.61653 21.07965 50.921547 -7.315754c-2.067009 -34.056442 -57.86527 -27.484753 -50.921547 7.315754z" fill-rule="evenodd"></path><path fill="#ffffff" d="m118.29849 81.16805c0.040260315 4.2159348 0.99116516 8.969093 0.16519165 13.4737625c-1.0744553 2.0670166 -3.183113 2.273857 -5.0016403 3.0998306c-2.5209503 -0.41368103 -4.6698685 -2.0670166 -5.662422 -4.4227753c-0.66078186 -5.1251907 0.24848175 -10.12545 0.37203217 -15.250641z" fill-rule="evenodd"></path><path stroke="#000000" stroke-width="2.968503937007874" stroke-miterlimit="29.774" stroke-linecap="round" d="m118.29849 81.16805c0.040260315 4.2159348 0.99116516 8.969093 0.16519165 13.4737625c-1.0744553 2.0670166 -3.183113 2.273857 -5.0016403 3.0998306c-2.5209503 -0.41368103 -4.6698685 -2.0670166 -5.662422 -4.4227753c-0.66078186 -5.1251907 0.24848175 -10.12545 0.37203217 -15.250641z" fill-rule="evenodd"></path><path fill="#000000" d="m68.49305 42.76936c0 4.5477066 -3.430214 8.266666 -7.646145 8.266666c-4.257576 0 -7.68779 -3.7189598 -7.68779 -8.266666c0 -4.5865746 3.430214 -8.306923 7.68779 -8.306923c4.215931 0 7.646145 3.7203484 7.646145 8.306923z" fill-rule="evenodd"></path><path fill="#ffffff" d="m66.13729 44.62953c0 1.1577492 -0.82736206 2.1086617 -1.8185272 2.1086617c-0.9925537 0 -1.8185272 -0.9509125 -1.8185272 -2.1086617c0 -1.1563606 0.8259735 -2.1072693 1.8185272 -2.1072693c0.99116516 0 1.8185272 0.95090866 1.8185272 2.1072693z" fill-rule="evenodd"></path><path fill="#000000" d="m132.55797 40.703735c0 4.546318 -3.3899536 8.266666 -7.5225906 8.266666c-4.174286 0 -7.564247 -3.7203484 -7.564247 -8.266666c0 -4.587967 3.3899612 -8.308311 7.564247 -8.308311c4.132637 0 7.5225906 3.7203445 7.5225906 8.308311z" fill-rule="evenodd"></path><path fill="#ffffff" d="m130.24248 42.563908c0 1.1563606 -0.8259735 2.1072693 -1.776886 2.1072693c-0.9911728 0 -1.776886 -0.95090866 -1.776886 -2.1072693c0 -1.1577492 0.7857132 -2.1086578 1.776886 -2.1086578c0.9509125 0 1.776886 0.95090866 1.776886 2.1086578z" fill-rule="evenodd"></path><path fill="#ffffff" d="m96.43313 80.71273c-3.3469238 8.101471 1.8601761 24.303024 10.912552 12.359047c-0.62052155 -5.1668396 0.24710083 -10.126839 0.41229248 -15.252037z" fill-rule="evenodd"></path><path stroke="#000000" stroke-width="2.968503937007874" stroke-miterlimit="29.774" stroke-linecap="round" d="m96.43313 80.71273c-3.3469238 8.101471 1.8601761 24.303024 10.912552 12.359047c-0.62052155 -5.1668396 0.24710083 -10.126839 0.41229248 -15.252037z" fill-rule="evenodd"></path><path fill="#f6d2a2" d="m97.54923 65.08866c-6.1996536 0.53862 -11.324844 7.9362793 -8.059822 13.805542c4.299217 7.77108 13.845795 -0.66078186 19.839996 0.123550415c6.860428 0.124931335 12.481201 7.2338486 17.978432 1.2812958c6.1177444 -6.6535873 -2.6445007 -13.10173 -9.506317 -15.994713z" fill-rule="evenodd"></path><path stroke="#231f20" stroke-width="2.968503937007874" stroke-miterlimit="29.774" stroke-linecap="round" d="m97.54923 65.08866c-6.1996536 0.53862 -11.324844 7.9362793 -8.059822 13.805542c4.299217 7.77108 13.845795 -0.66078186 19.839996 0.123550415c6.860428 0.124931335 12.481201 7.2338486 17.978432 1.2812958c6.1177444 -6.6535873 -2.6445007 -13.10173 -9.506317 -15.994713z" fill-rule="evenodd"></path><path fill="#000000" d="m96.76352 64.79992c-0.45394135 -10.829262 20.128738 -12.152206 22.567787 -3.1414719c2.4390488 9.010735 -21.533585 11.118004 -22.567787 3.1414719c-0.7843323 -6.406494 0 0 0 0z" fill-rule="evenodd"></path><path fill="#000000" d="m793.35596 54.56753c0 0 0 0 0 0.42037582c-1.2637329 0 -2.9503174 0 -4.6343994 0.4229355c1.2636719 -0.4229355 2.9503174 -0.8433113 4.6343994 -0.8433113zm3.3706665 8.005043c0.42034912 0.84074783 1.2636719 1.684063 2.5273438 2.5273705c-8.005005 0.84075165 -16.43042 1.2636871 -24.435486 2.1044312c-15.587158 1.2636871 -30.330994 2.9503098 -43.811157 4.2139893l-1.2636719 0c1.2636719 -0.420372 2.1044312 -1.2636795 3.368103 -1.6840591c9.69165 -0.8433075 20.221497 -2.1069946 29.490234 -2.9503021c10.53241 -1.2636871 20.221558 -2.1069946 27.38324 -3.3706818c2.5274048 0 4.6343994 -0.420372 6.741394 -0.84074783zm106.5827 13.900532c-0.42041016 0.4229355 -0.84332275 1.2636871 -0.84332275 1.6866226c-4.6343994 0.420372 -9.689087 0.840744 -15.164246 1.2636795c-27.806152 2.5273743 -64.03522 4.634369 -101.95087 6.7388c12.216492 -1.2636871 24.012573 -2.5273666 35.808655 -3.7910538c27.38324 -2.1069946 52.659546 -4.211426 73.303955 -5.8980484zm7.161743 18.957832l4.2139893 5.0547333c-0.84332275 2.1069946 -1.2637329 4.213997 -1.6866455 6.3209915l-4.211426 -4.213997c0.42034912 -2.5273666 1.2636719 -5.0547333 1.684082 -7.161728zm-11.796143 -6.7413635c-0.42034912 1.2636871 -0.84332275 2.9503098 -1.2636719 4.2139893c-32.01764 4.2114334 -88.88855 8.845795 -188.31207 14.323471c-30.330994 1.6840591 -60.661987 3.3706818 -88.46814 4.6343613c29.069824 -2.1069946 65.71924 -5.0547333 112.06036 -9.26873c45.49774 -4.211426 90.154785 -8.425415 126.8042 -12.216469c14.746399 -0.8433075 27.806152 -1.6866226 39.17932 -1.6866226zm17.694153 14.323471l2.947754 3.7936172c-0.42034912 1.6840591 -0.8407593 3.3681107 -1.2636719 5.0547333l-2.947754 -2.9503021c0.42034912 -2.1044312 0.84332275 -3.7910538 1.2636719 -5.8980484zm-87.62488 10.955345l0 0c-24.015076 2.1044312 -49.71173 3.7910538 -75.41095 5.475113c-13.059753 1.2636871 -26.539917 2.1069946 -39.59967 2.9503098c15.587158 -1.6866226 31.174255 -3.3706818 46.341064 -4.634369c6.741333 -0.4229355 13.059753 -0.8433075 19.378174 -1.2636795c1.2637329 0 2.5274048 -0.42294312 3.7910767 -0.42294312c16.853394 -0.420372 31.597229 -1.2636795 45.500305 -2.1044312zm-257.40198 16.427895l0 0c-28.646973 2.5273743 -53.08246 4.2140045 -68.66962 4.634369c3.7936096 -0.840744 8.848358 -1.6840515 14.746399 -2.5273743c12.636841 0 29.910645 -0.8433075 53.923218 -2.1069946zm308.5902 -13.277649c-1.194458 0.16148376 -2.388977 0.40242767 -3.5859985 0.6408081c-42.547485 4.634369 -99.84131 10.952789 -157.97852 16.850845l-160.08551 10.952774c-29.490234 1.2636871 -53.923187 2.5273743 -68.24664 2.9503174c-1.686615 0 -3.3706665 -0.42294312 -4.2139893 -0.42294312c33.704224 -5.0547333 167.67017 -14.743835 268.3548 -21.905571c47.16388 -3.2809677 91.933716 -6.5619354 125.75586 -9.066231zm-305.21954 45.7182l-90.995544 7.161743c16.007538 -2.9503174 50.13214 -5.057312 90.995544 -7.161743zm316.8003 1.6840668c0 0.42036438 0 0.8433075 0 1.2636871c-31.751038 2.4120178 -68.49011 5.205963 -106.55444 8.020416l0 0l106.55444 -9.284103zm49.711792 -71.19696c7.5820923 0 18.957825 20.644447 18.957825 51.818756c0 15.587143 -2.9503174 28.646927 -6.741333 37.9131l-2.5274048 -5.8954926c3.3706665 -7.161728 6.3184204 -18.53746 6.3184204 -32.01761c0 -24.012573 -8.425415 -40.865974 -16.007507 -40.865974c-4.2139893 0 -8.848389 5.4776764 -12.216492 14.746407l-2.5299072 -5.4776764c4.2139893 -12.636841 10.1119995 -20.221512 14.746399 -20.221512zm-294.05402 77.938324c-65.8551 6.2543335 -129.45972 12.185699 -157.4274 12.185699c-4.0576477 0 -7.3642273 -0.123031616 -9.819824 -0.39216614c1.2636719 -0.42037964 3.3706665 -0.8407593 5.477661 -1.2636871c1.1278381 0.025634766 2.3248901 0.035888672 3.598816 0.035888672c21.562103 0 64.30948 -3.3604279 137.10849 -9.724991c7.161743 -0.42037964 13.900513 -0.840744 21.062256 -0.840744zm294.05402 -64.87855c5.4750977 0 13.480164 15.587158 13.480164 38.75898c0 12.216461 -2.1069946 22.325943 -5.0547485 29.067307l-1.6866455 -2.9477386l0.84332275 4.211426c-2.5273438 5.4776764 -5.4750977 8.425415 -7.5820923 8.425415c-5.477661 0 -13.903076 -15.587158 -13.903076 -38.75641c0 -23.171822 8.425415 -38.75898 13.903076 -38.75898zm-393.47498 81.72938l-26.539917 2.1044312c-5.8980713 0.42294312 -10.952789 0.42294312 -15.587158 0.42294312c11.796082 -0.84332275 25.696594 -1.6866302 42.127075 -2.5273743zm393.47498 -108.26931c9.689087 0 24.432922 26.11956 24.432922 65.29891c0 18.957825 -3.3706665 34.965347 -8.002441 46.34108l-2.9503174 -5.898056c4.6343384 -9.691666 8.005005 -24.015121 8.005005 -40.443024c0 -31.174309 -11.375671 -54.34613 -21.485168 -54.34613c-5.8980713 0 -11.796082 7.584671 -16.01007 19.801147l-2.947754 -5.4776764c5.477661 -16.00753 13.059753 -25.276253 18.957825 -25.276253zm-15.166809 35.38829l2.9503174 4.211426c-2.5299072 6.7413635 -3.793579 15.587151 -3.793579 25.699196c0 24.012558 8.425415 40.863403 16.01007 40.863403c2.947754 0 5.8980713 -2.5273743 8.425415 -6.7413635l1.684082 8.005051c-3.3707275 6.3184204 -7.161743 9.689102 -10.109497 9.689102c-7.584656 0 -19.378235 -20.641891 -19.378235 -51.816193c0 -11.375732 1.684082 -21.485207 4.211426 -29.910622zm15.166809 -48.868446c11.796082 0 29.910583 31.594673 29.910583 78.77907c0 22.325943 -3.7910156 40.863403 -9.689087 54.766495l-2.5273438 -5.898056c5.0547485 -11.375717 8.845764 -28.226547 8.845764 -48.86844c0 -41.70672 -15.587158 -67.40591 -26.539917 -67.40591c-6.741394 0 -14.746399 8.425415 -20.221497 24.435501l-2.5274048 -5.4776764c6.3184204 -18.957825 15.587158 -30.330986 22.748901 -30.330986zm0 -10.532417c17.27118 0 37.072327 36.651978 37.072327 89.311485c0 26.119568 -5.0547485 48.44551 -11.796082 64.4556l-3.3706665 -6.7413635c5.8980103 -13.903091 10.1119995 -33.701675 10.1119995 -57.714233c0 -49.29139 -18.957825 -80.88606 -32.01758 -80.88606c-8.005066 0 -17.694153 10.53241 -24.435486 29.490242l-3.368164 -7.1617355c7.5821533 -19.380768 17.69159 -30.75393 27.80365 -30.75393zm-20.221497 53.502815l3.3706665 3.7910538c-2.9503174 8.845795 -4.6343994 19.798576 -4.6343994 32.017616c0 31.174301 11.373169 54.34355 21.48523 54.34355c3.3706665 0 7.5820923 -3.3706818 10.952759 -8.845779l1.684082 8.425415c-4.211426 7.5821075 -8.845825 11.373154 -12.636841 11.373154c-9.689087 0 -24.855896 -26.117004 -24.855896 -65.29634c0 -11.375732 1.2636719 -21.485207 3.3706665 -30.333557l1.2637329 0.4229355l0 0l-1.2637329 -1.2636871c0.42041016 -1.686615 0.84332275 -3.3706741 1.2637329 -4.6343613zm-23.171875 90.15222c0 0.42294312 0.42297363 0.84332275 0.42297363 1.2636871c-26.119568 2.1069946 -67.826294 5.898056 -134.38885 11.796097c-18.534912 1.6866302 -37.91571 3.3706818 -57.714294 5.0547485c-32.01758 2.1069946 -64.87598 4.6343536 -97.31653 6.320984c30.753967 -2.5273743 69.089966 -6.320984 115.01068 -10.952789c7.5821533 -0.42294312 15.587158 -1.2662506 23.58966 -2.1069946c64.87854 -3.7910614 107.84894 -7.584671 136.49585 -10.112045c5.0547485 -0.42036438 9.689087 -0.840744 13.900513 -1.2636871zm16.010132 -85.09748l3.3706665 0.420372c-1.6866455 8.848351 -2.9503174 18.957825 -2.9503174 30.333557c0 41.70671 15.587158 67.82628 26.96289 67.82628c4.211426 0 8.845764 -3.7936249 13.059753 -10.53241l2.1069946 8.425415c-5.057251 8.425415 -10.53241 13.059784 -15.166748 13.059784c-12.216492 0 -30.333557 -31.597244 -30.333557 -78.77907c0 -11.375732 1.2636719 -21.485207 2.9503174 -30.75393zm-340.8155 105.741936l0 0c-30.751343 2.5273743 -56.03015 4.211426 -69.930695 4.211426c10.109467 -0.42036438 25.276276 -1.2636871 47.181854 -2.9477386c7.161682 -0.42294312 14.746399 -0.8433075 22.74884 -1.2636871zm333.23334 -106.58525l5.0547485 0.4229355c-1.6865845 9.266167 -2.5273438 19.798576 -2.5273438 31.174309c0 50.132126 18.957825 80.8835 32.43799 80.8835c4.6343384 0 10.53241 -4.211426 15.587158 -11.793533l1.684021 8.845779c-5.4750977 7.161743 -11.373108 11.375732 -17.27118 11.375732c-17.694153 0 -37.072388 -36.651978 -37.072388 -89.31148c0 -11.375732 0.8407593 -21.908142 2.1069946 -31.597244zm-16.853394 104.47826c-20.221497 2.1069946 -48.445496 4.634369 -87.20447 8.845795c-56.87091 5.4776764 -128.48828 12.639404 -186.20508 17.273773c-27.38324 1.2636871 -54.343567 2.5273743 -79.61981 3.7910461c58.557556 -6.7413483 220.32715 -19.801132 353.02936 -29.910614zm-96.60907 -218.65074c-7.633362 0 -14.941162 2.0300977 -17.978638 7.169423c-4.211426 6.7387967 -28.223999 35.38573 -45.91815 50.132133c-7.161743 5.8980484 -50.13214 12.636845 -88.04779 18.534893c-48.445496 7.1617355 -103.212036 15.587151 -137.33661 28.226562l-0.84332275 0.420372c-23.58963 11.796097 -38.33603 40.863403 -37.492706 72.46065c0.84329224 19.798569 9.268707 67.82628 72.4606 94.36623l2.1044312 0.84329224l2.1070557 -0.42294312c108.68964 -23.16925 307.11377 -23.16925 392.21124 -23.16925l7.161743 0c28.223999 0 50.55249 -45.077393 50.55249 -102.791626c0 -57.716805 -22.328491 -102.79164 -50.55249 -102.79164l-0.84332275 0c-1.2636719 0 -2.1069946 0 -3.3706665 0.420372c-3.3706665 0.420372 -8.002502 0.8433113 -13.480164 1.2636833c-30.289978 2.8657188 -100.74359 9.7070465 -115.154236 9.7070465c-0.4229126 0 -0.7946167 -0.005126953 -1.1175537 -0.017944336l-0.4229126 0c0.4229126 -3.7910538 4.6343384 -12.636845 7.161682 -18.114517c1.6866455 -3.7910557 3.7910767 -8.005045 5.0547485 -11.796099c3.3706665 -8.425419 -0.42034912 -16.430462 -9.266174 -21.064827c-4.5061646 -2.0634198 -10.852783 -3.3758063 -16.989258 -3.3758063z" fill-rule="evenodd"></path><path fill="#000000" d="m941.225 119.86644c3.3706665 0 8.005066 10.109482 8.005066 25.27626c0 15.164215 -4.6343994 25.276245 -8.005066 25.276245c-3.3706665 0 -8.425415 -10.11203 -8.425415 -25.276245c0 -15.166779 5.0547485 -25.27626 8.425415 -25.27626zm0 -2.1069946c-5.8980713 0 -10.53241 12.636841 -10.53241 27.383255c0 14.743835 4.6343384 27.38324 10.53241 27.38324c5.4750977 0 10.53241 -12.639404 10.53241 -27.38324c0 -14.746414 -5.057312 -27.383255 -10.53241 -27.383255z" fill-rule="evenodd"></path><path fill="#000000" d="m941.225 131.23961c-3.7910767 0 -5.0547485 7.161728 -5.0547485 13.903091c0 6.7388 1.2636719 13.900528 5.0547485 13.900528c3.3706665 0 5.0547485 -7.161728 5.0547485 -13.900528c0 -6.7413635 -1.684082 -13.903091 -5.0547485 -13.903091z" fill-rule="evenodd"></path><path fill="#000000" d="m1255.8347 114.23122c0 25.523788 -20.6156 46.13945 -46.141235 46.13945l-137.92773 0c-25.525757 0 -46.141357 -20.615662 -46.141357 -46.13945zm-107.49768 69.21011l0 45.895065c0 4.1712646 3.4362793 7.6075134 7.85376 7.6075134c4.173218 0 7.609375 -3.4362488 7.609375 -7.6075134c0 -12.761887 10.306885 -23.070663 23.068848 -23.070663c12.517456 0 22.824463 10.308777 22.824463 23.070663l0 30.678192l-15.215088 0l0 -30.678192c0 -4.173126 -3.4362793 -7.6093903 -7.609375 -7.6093903c-4.4174805 0 -7.85376 3.436264 -7.85376 7.6093903c0 12.761902 -10.306885 23.068787 -22.824463 23.068787c-12.761841 0 -23.068726 -10.306885 -23.068726 -23.068787l0 -45.895065zm7.85376 -184.07092c-12.761841 0 -23.068726 10.308768 -23.068726 22.824411l15.214966 0c0 -4.171255 3.4362793 -7.6075106 7.85376 -7.6075106c33.6239 0 61.356445 27.48817 61.356445 61.35635l0 9.081261l0 6.3818893l-15.461304 0l0 -15.46315l-15.216919 0l0 15.46315l-184.06903 0l0 22.82441c0 38.28569 30.678162 69.21011 68.96576 69.21011l45.89319 0l0 45.895065c0 21.106293 17.181274 38.285675 38.53186 38.285675c8.590698 0 16.444458 -2.6993713 22.824463 -7.607483l0 15.461273l46.141357 0l0 -46.139465c0 -21.106277 -17.181274 -38.28755 -38.287598 -38.28755c-8.834961 0 -16.688843 2.6993713 -23.068848 7.6093903l0 -15.216904l45.89331 0c38.287476 0 69.21008 -30.924423 69.21008 -69.21011l0 -22.82441l-15.461304 0l0 -15.46315l-15.216919 0l0 15.46315l-15.461304 0l0 -15.46315c0 -42.212566 -34.358765 -76.57325 -76.57324 -76.57325z" fill-rule="evenodd"></path><path fill="#000000" d="m1133.1221 37.65797l0 15.2169l15.214966 0l0 -15.2169z" fill-rule="evenodd"></path><path fill="#000000" d="m1133.1221 68.33614l0 15.216904l15.214966 0l0 -15.216904z" fill-rule="evenodd"></path></g></svg>

