<?xml version="1.0" standalone="yes"?>

<svg version="1.1" viewBox="0.0 0.0 1448.9238845144357 275.98687664041995" fill="none" stroke="none" stroke-linecap="square" stroke-miterlimit="10" xmlns="http://www.w3.org/2000/svg" xmlns:xlink="http://www.w3.org/1999/xlink"><clipPath id="p.0"><path d="m0 0l1448.9238 0l0 275.98688l-1448.9238 0l0 -275.98688z" clip-rule="nonzero"></path></clipPath><g clip-path="url(#p.0)"><path fill="#000000" fill-opacity="0.0" d="m0 0l1448.9238 0l0 275.98688l-1448.9238 0z" fill-rule="evenodd"></path><path fill="#000000" d="m949.42615 57.30568c0 0 0 0 0 0.42515182c-1.2780762 0 -2.9838257 0 -4.6870728 0.42774582c1.2780762 -0.42774582 2.9838867 -0.85289764 4.6870728 -0.85289764zm3.4089966 8.096031c0.42510986 0.85030365 1.2780151 1.7032013 2.5560913 2.5560913c-8.096069 0.85030365 -16.617249 1.2780533 -24.713257 2.128357c-15.764343 1.2780457 -30.67572 2.9838333 -44.309082 4.2618866l-1.2780762 0c1.2780762 -0.42515564 2.128357 -1.2780533 3.406433 -1.7032013c9.801819 -0.85289764 20.451355 -2.1309433 29.825378 -2.983841c10.652161 -1.2780457 20.451355 -2.1309433 27.694519 -3.408989c2.5560913 0 4.6870117 -0.42515564 6.817993 -0.85030365zm107.79413 14.058525c-0.4251709 0.427742 -0.8529053 1.2780457 -0.8529053 1.7057877c-4.687134 0.42515564 -9.799316 0.85030365 -15.336548 1.2780457c-28.122314 2.556099 -64.76312 4.687042 -103.10974 6.8153915c12.355347 -1.2780457 24.285522 -2.5560913 36.2157 -3.8341446c27.694458 -2.1309433 53.258057 -4.2592926 74.137085 -5.9650803zm7.243042 19.173302l4.261963 5.1121902c-0.8529053 2.1309433 -1.2780762 4.2618866 -1.7058105 6.39283l-4.2592773 -4.2618866c0.4251709 -2.5560913 1.2780762 -5.1121902 1.703125 -7.2431335zm-11.930176 -6.817978c-0.42504883 1.2780457 -0.8529053 2.9838333 -1.2779541 4.2618866c-32.38159 4.2592926 -89.898865 8.946327 -190.45245 14.486267c-30.67572 1.7031937 -61.35144 3.408989 -89.473694 4.6870346c29.400269 -2.1309433 66.46625 -5.1121902 113.334045 -9.374077c46.014893 -4.2592926 91.179504 -8.521179 128.24542 -12.355324c14.9140625 -0.85289764 28.122314 -1.7057877 39.624634 -1.7057877zm17.895264 14.486267l2.9813232 3.836731c-0.4251709 1.7032013 -0.8503418 3.406395 -1.2780762 5.1121902l-2.9812012 -2.983841c0.42504883 -2.1283493 0.8529053 -3.834137 1.2779541 -5.9650803zm-88.62073 11.0798645l0 0c-24.288086 2.1283493 -50.276794 3.8341446 -76.26807 5.5373383c-13.208252 1.2780533 -26.841614 2.1309433 -40.049866 2.983841c15.764343 -1.7057877 31.528625 -3.408989 46.867798 -4.6870346c6.817993 -0.42774963 13.208252 -0.85289764 19.59845 -1.2780533c1.2780762 0 2.5560913 -0.427742 3.8341675 -0.427742c17.044983 -0.425148 31.95636 -1.2780457 46.017517 -2.1283493zm-260.3277 16.614616l0 0c-28.972534 2.5560913 -53.68573 4.2618866 -69.45007 4.687042c3.836731 -0.8503113 8.948914 -1.7032013 14.914001 -2.5560913c12.780518 0 30.25061 -0.8529053 54.53607 -2.130951zm312.09772 -13.428574c-1.2081299 0.16332245 -2.4161377 0.4070053 -3.626831 0.6481018c-43.031006 4.6870346 -100.976074 11.0772705 -159.77405 17.042358l-161.90503 11.0772705c-29.82544 1.2780609 -54.53607 2.5561066 -69.02234 2.983841c-1.7058105 0 -3.4089966 -0.42773438 -4.261902 -0.42773438c34.08734 -5.112198 169.57593 -14.911423 271.4049 -22.154556c47.69995 -3.3182602 92.97864 -6.6365128 127.18524 -9.169281zm-308.68872 46.23784l-92.029785 7.2431335c16.189453 -2.983841 50.701965 -5.1147766 92.029785 -7.2431335zm320.40112 1.7032013c0 0.42515564 0 0.8529053 0 1.2780457c-32.11194 2.4394379 -69.26868 5.265152 -107.765625 8.111588l0 0l107.765625 -9.389633zm50.276733 -72.00618c7.668335 0 19.17334 20.879097 19.17334 52.40773c0 15.764313 -2.9838867 28.972534 -6.817993 38.34401l-2.5561523 -5.962494c3.4090576 -7.2431335 6.390259 -18.748154 6.390259 -32.381516c0 -24.2855 -8.521118 -41.330452 -16.189453 -41.330452c-4.261841 0 -8.948975 5.5399323 -12.355347 14.914009l-2.5587158 -5.5399323c4.261963 -12.780479 10.227051 -20.451355 14.9140625 -20.451355zm-297.39618 78.82416c-66.6037 6.3254395 -130.93121 12.324219 -159.21674 12.324219c-4.10376 0 -7.447937 -0.124435425 -9.9314575 -0.39663696c1.2780762 -0.42515564 3.4089966 -0.850296 5.539917 -1.2780457c1.140686 0.025924683 2.3513184 0.03630066 3.6397095 0.03630066c21.80719 0 65.04047 -3.3986206 138.66687 -9.8355255c7.243164 -0.42515564 14.058533 -0.8503113 21.301697 -0.8503113zm297.39618 -65.61594c5.5373535 0 13.633423 15.764313 13.633423 39.19951c0 12.355316 -2.1309814 22.579697 -5.1121826 29.397675l-1.7058105 -2.981247l0.8529053 4.259308c-2.5561523 5.5399323 -5.5373535 8.521179 -7.668335 8.521179c-5.539917 0 -14.061157 -15.764313 -14.061157 -39.196915c0 -23.435196 8.52124 -39.19951 14.061157 -39.19951zm-397.9472 82.65831l-26.841553 2.1283417c-5.965088 0.42774963 -11.0772705 0.42774963 -15.764343 0.42774963c11.930176 -0.8529053 25.988708 -1.7057953 42.605896 -2.5560913zm397.9472 -109.4999c9.799194 0 24.710693 26.416435 24.710693 66.0411c0 19.173294 -3.4090576 35.362762 -8.093506 46.867783l-2.9837646 -5.965088c4.6870117 -9.801819 8.095947 -24.288086 8.095947 -40.902695c0 -31.528633 -11.505005 -54.96382 -21.72937 -54.96382c-5.965088 0 -11.930176 7.6708755 -16.192017 20.0262l-2.9813232 -5.5399323c5.539917 -16.189468 13.208252 -25.563545 19.17334 -25.563545zm-15.339111 35.790512l2.9837646 4.2592926c-2.5587158 6.8179855 -3.83667 15.76432 -3.83667 25.991295c0 24.285492 8.521118 41.32785 16.192017 41.32785c2.9812012 0 5.965088 -2.5560913 8.52124 -6.817978l1.703125 8.096024c-3.4089355 6.3902435 -7.243164 9.799225 -10.224365 9.799225c-7.6708984 0 -19.59851 -20.876495 -19.59851 -52.40512c0 -11.50502 1.7032471 -21.729408 4.2593994 -30.250587zm15.339111 -49.42388c11.930176 0 30.25061 31.953781 30.25061 79.67447c0 22.579697 -3.8341064 41.32785 -9.799194 55.38896l-2.5561523 -5.965088c5.1121826 -11.50502 8.946289 -28.547379 8.946289 -49.423874c0 -42.180756 -15.764282 -68.17204 -26.841553 -68.17204c-6.817993 0 -14.9140625 8.521179 -20.451294 24.713242l-2.5561523 -5.53994c6.390259 -19.173302 15.764282 -30.675728 23.007446 -30.675728zm0 -10.652126c17.46753 0 37.493774 37.06856 37.493774 90.3266c0 26.416428 -5.1123047 48.99614 -11.930176 65.1882l-3.4090576 -6.817993c5.965088 -14.061111 10.226929 -34.084717 10.226929 -58.37021c0 -49.85163 -19.173218 -81.80541 -32.38147 -81.80541c-8.096069 0 -17.895264 10.6521225 -24.713257 29.825424l-3.406372 -7.2431335c7.668335 -19.601044 17.8927 -31.103474 28.119629 -31.103474zm-20.451294 54.110928l3.4089355 3.834137c-2.9838867 8.946335 -4.6870117 20.023605 -4.6870117 32.38153c0 31.528625 11.502441 54.961227 21.72937 54.961227c3.4090576 0 7.668335 -3.4089966 11.0772705 -8.946335l1.7032471 8.521179c-4.2592773 7.668289 -8.946411 11.502426 -12.780518 11.502426c-9.799194 0 -25.138428 -26.413849 -25.138428 -66.0385c0 -11.50502 1.2780762 -21.729408 3.4090576 -30.67833l1.2780762 0.427742l0 0l-1.2780762 -1.2780457c0.4251709 -1.7057953 0.8529053 -3.408989 1.2780762 -4.6870346zm-23.435303 91.176895c0 0.42773438 0.42785645 0.85289 0.42785645 1.2780457c-26.416504 2.1309357 -68.59723 5.965088 -135.91638 11.930176c-18.745544 1.70578 -38.34662 3.4089813 -58.37024 5.1121826c-32.38153 2.130951 -65.61334 4.687042 -98.42261 6.3928375c31.103455 -2.5561066 69.875244 -6.3928375 116.31787 -11.077286c7.668274 -0.42773438 15.764343 -1.2806396 23.857788 -2.1309357c65.615906 -3.8341522 109.07471 -7.670883 138.04724 -10.2269745c5.1121826 -0.42515564 9.799194 -0.8503113 14.058472 -1.2780457zm16.192139 -86.06471l3.4089355 0.42515564c-1.7058105 8.948921 -2.9837646 19.17331 -2.9837646 30.67833c0 42.18074 15.764282 68.59718 27.269287 68.59718c4.2592773 0 8.946289 -3.836731 13.208252 -10.652115l2.1308594 8.521179c-5.114746 8.521179 -10.6521 13.208221 -15.339111 13.208221c-12.355347 0 -30.678345 -31.956375 -30.678345 -79.67447c0 -11.50502 1.2780762 -21.729408 2.9838867 -31.103485zm-344.68915 106.9438l0 0c-31.100891 2.5560913 -56.667053 4.2592926 -70.725586 4.2592926c10.224426 -0.42514038 25.563538 -1.2780457 47.71814 -2.981247c7.243103 -0.42773438 14.914001 -0.85289 23.007446 -1.2780457zm337.0208 -107.79669l5.1121826 0.427742c-1.7058105 9.371483 -2.5560303 20.023613 -2.5560303 31.528633c0 50.701935 19.173218 81.80281 32.80664 81.80281c4.6870117 0 10.6521 -4.2592926 15.764282 -11.927582l1.7032471 8.946335c-5.5373535 7.2431335 -11.502441 11.50502 -17.46753 11.50502c-17.895264 0 -37.493652 -37.068558 -37.493652 -90.326584c0 -11.50502 0.8502197 -22.15715 2.1308594 -31.956375zm-17.044922 105.66576c-20.451416 2.1309357 -48.996155 4.687027 -88.19568 8.946335c-57.517273 5.5399323 -129.94861 12.783066 -188.32141 17.470093c-27.694519 1.2780457 -54.961243 2.5561066 -80.52478 3.8341522c59.223083 -6.817993 222.8313 -20.0262 357.04187 -30.25058zm-97.70715 -221.13593c-7.720093 0 -15.111023 2.0531716 -18.182983 7.25091c-4.2592773 6.8153896 -28.5448 35.78792 -46.440063 50.70193c-7.243103 5.965088 -50.701904 12.780479 -89.04852 18.74556c-48.996155 7.2431335 -104.38513 15.76432 -138.89758 28.547386l-0.8529053 0.425148c-23.857727 11.930176 -38.77173 41.327858 -37.918884 73.28423c0.8529053 20.023605 9.374084 68.59718 73.28424 95.43877l2.128357 0.8529053l2.1309814 -0.42773438c109.92499 -23.432602 310.60437 -23.432602 396.66907 -23.432602l7.243164 0c28.5448 0 51.127075 -45.589752 51.127075 -103.95996c0 -58.372818 -22.582275 -103.95996 -51.127075 -103.95996l-0.8529053 0c-1.2780762 0 -2.1309814 0 -3.4089355 0.42515182c-3.4090576 0.42515182 -8.093506 0.8528938 -13.633423 1.2780457c-30.634277 2.8982887 -101.88861 9.817375 -116.46301 9.817375c-0.4277954 0 -0.8036499 -0.0051841736 -1.13031 -0.018146515l-0.42773438 0c0.42773438 -3.8341446 4.6870117 -12.780476 7.243103 -18.320408c1.7058105 -3.8341446 3.8341675 -8.096031 5.1122437 -11.930174c3.4089355 -8.521179 -0.4251709 -16.61721 -9.371521 -21.304247c-4.557434 -2.0868728 -10.976196 -3.4141757 -17.182373 -3.4141757z" fill-rule="evenodd"></path><path fill="#000000" d="m1098.9758 123.34678c3.4090576 0 8.096069 10.224373 8.096069 25.563545c0 15.336563 -4.6870117 25.563538 -8.096069 25.563538c-3.4089355 0 -8.521118 -10.2269745 -8.521118 -25.563538c0 -15.339172 5.1121826 -25.563545 8.521118 -25.563545zm0 -2.1309433c-5.965088 0 -10.6521 12.780472 -10.6521 27.694489c0 14.911407 4.6870117 27.694489 10.6521 27.694489c5.5373535 0 10.6521 -12.783081 10.6521 -27.694489c0 -14.914017 -5.114746 -27.694489 -10.6521 -27.694489z" fill-rule="evenodd"></path><path fill="#000000" d="m1098.9758 134.8492c-3.8341064 0 -5.1121826 7.2431335 -5.1121826 14.061127c0 6.815384 1.2780762 14.058517 5.1121826 14.058517c3.4090576 0 5.1121826 -7.2431335 5.1121826 -14.058517c0 -6.817993 -1.703125 -14.061127 -5.1121826 -14.061127z" fill-rule="evenodd"></path><path fill="#000000" d="m1422.5618 114.98317c0 25.523788 -20.6156 46.13945 -46.141357 46.13945l-137.92761 0c-25.525757 0 -46.141357 -20.615662 -46.141357 -46.13945zm-107.49768 69.21011l0 45.895065c0 4.1712494 3.4362793 7.6075134 7.85376 7.6075134c4.173218 0 7.609375 -3.436264 7.609375 -7.6075134c0 -12.761887 10.306885 -23.070663 23.068848 -23.070663c12.517456 0 22.82434 10.308777 22.82434 23.070663l0 30.678162l-15.214966 0l0 -30.678162c0 -4.173126 -3.4362793 -7.6093903 -7.609375 -7.6093903c-4.4174805 0 -7.85376 3.436264 -7.85376 7.6093903c0 12.761902 -10.306885 23.068787 -22.824463 23.068787c-12.761841 0 -23.068726 -10.306885 -23.068726 -23.068787l0 -45.895065zm7.85376 -184.07092c-12.761841 0 -23.068726 10.308768 -23.068726 22.824411l15.214966 0c0 -4.171255 3.4362793 -7.6075106 7.85376 -7.6075106c33.62378 0 61.356323 27.488167 61.356323 61.356342l0 9.081268l0 6.3818893l-15.461182 0l0 -15.463158l-15.216919 0l0 15.463158l-184.06909 0l0 22.82441c0 38.285675 30.678223 69.21011 68.96582 69.21011l45.89319 0l0 45.895065c0 21.106293 17.181274 38.285675 38.53186 38.285675c8.590698 0 16.444458 -2.6993713 22.824463 -7.6075134l0 15.461273l46.141357 0l0 -46.139435c0 -21.106277 -17.181396 -38.287567 -38.287598 -38.287567c-8.835083 0 -16.688843 2.6993866 -23.068848 7.6093903l0 -15.216888l45.89319 0c38.287598 0 69.210205 -30.924438 69.210205 -69.21011l0 -22.82441l-15.461304 0l0 -15.463158l-15.216919 0l0 15.463158l-15.461304 0l0 -15.463158c0 -42.212563 -34.358765 -76.57324 -76.57324 -76.57324z" fill-rule="evenodd"></path><path fill="#000000" d="m1299.8491 38.409924l0 15.2169l15.214966 0l0 -15.2169z" fill-rule="evenodd"></path><path fill="#000000" d="m1299.8491 69.0881l0 15.216896l15.214966 0l0 -15.216896z" fill-rule="evenodd"></path><path fill="#231f20" d="m45.790367 19.50193c4.663349 0 8.902962 2.1186848 11.871365 5.0870857c2.968399 2.968401 5.0870857 7.2080135 5.0870857 11.871365c0 4.6655884 -2.1186867 8.905201 -5.0870857 11.871361c-2.9684029 3.3921394 -7.2080154 5.089329 -11.871365 5.089329c-4.663349 0 -8.479225 -1.6971893 -11.447624 -5.089329c-2.968401 -2.9661598 -5.089329 -7.2057724 -5.089329 -11.871361c0 -4.663351 2.1209278 -8.902964 5.089329 -11.871365c2.968399 -2.968401 6.784275 -5.0870857 11.447624 -5.0870857zm86.06345 50.60855c1.57164 0 3.147766 0.23764801 4.6700745 0.6927719c3.8158722 1.2734528 7.6317444 3.8158798 9.75267 7.631752l0.42373657 0.4259796c2.1186981 3.8158722 2.5424347 8.479225 1.6949615 12.718834c-1.2712097 4.2396164 -3.8158875 7.631752 -7.6317596 10.1764145l-0.42373657 0c-2.4460144 1.6299286 -5.2417755 2.3899689 -7.936661 2.3899689c-1.5111084 0 -2.9885712 -0.23765564 -4.358429 -0.6950226c-4.2396164 -1.2712097 -8.055496 -3.8158722 -10.176422 -7.6317444c-2.5446625 -4.2396164 -2.968399 -8.902962 -1.6949463 -13.142578c0.84747314 -4.241852 3.8158722 -8.057724 7.631752 -10.1764145c2.4460144 -1.6321716 5.23954 -2.3899612 8.048759 -2.3899612zm-86.06345 43.093376c6.784275 0 12.718838 2.9661636 17.384426 7.2080154c4.2396126 4.6633453 6.7820396 10.597908 6.7820396 17.38218c0 6.7842865 -2.542427 12.721085 -6.7820396 17.38443c-4.6655884 4.239609 -10.600151 7.208023 -17.384426 7.208023c-6.3605385 0 -12.721077 -2.9684143 -16.96069 -7.208023c-4.2396126 -4.6633453 -6.782034 -10.600143 -6.782034 -17.38443c0 -6.7842712 2.5424213 -12.718834 6.782034 -17.38218c4.2396126 -4.241852 10.600151 -7.2080154 16.96069 -7.2080154zm86.61274 58.240295c2.6948853 0 5.4906464 0.75779724 7.936661 2.3899689c4.239609 2.1186829 6.7842865 5.934555 8.055496 10.174179c0.84747314 3.8181152 0.42373657 8.481461 -1.6949615 12.297333l0 0.42373657c-2.5446625 4.239609 -5.936798 6.7842865 -10.176407 8.055496c-1.5223083 0.45736694 -3.0984344 0.6950073 -4.6700745 0.6950073c-2.8092194 0 -5.602745 -0.760025 -8.048759 -2.3899536c-3.8158798 -2.1209412 -6.784279 -5.9368134 -7.631752 -10.176422c-1.2734528 -4.239609 -0.8497162 -8.905197 1.6949463 -12.721085c2.120926 -4.239609 5.9368057 -7.205765 10.176422 -8.055481c1.3698578 -0.4551239 2.8473206 -0.69277954 4.358429 -0.69277954zm-86.61274 50.72513c4.663349 0 8.902962 1.6949615 11.871365 5.087097c2.968399 2.968399 5.0870857 7.208008 5.0870857 11.871353c0 4.6633606 -2.1186867 8.902969 -5.0870857 11.871368c-2.9684029 2.968399 -7.2080154 5.08934 -11.871365 5.08934c-4.663349 0 -8.479225 -2.1209412 -11.447624 -5.08934c-2.968401 -2.968399 -5.089329 -7.208008 -5.089329 -11.871368c0 -4.6633453 2.1209278 -8.902954 5.089329 -11.871353c2.968399 -3.3921356 6.784275 -5.087097 11.447624 -5.087097zm0 -222.17046c-9.752678 0 -18.655638 4.239612 -25.016176 10.597909c-6.784277 6.784277 -10.600152 15.68948 -10.600152 25.863653c0 10.1764145 3.815875 19.079372 10.600152 25.863651c4.663349 4.663349 11.023888 8.479221 17.808165 9.752674l0 19.503113c-9.752678 1.6949463 -18.231903 6.3605423 -25.016178 13.142578c-8.479224 8.481461 -13.566311 20.352821 -13.566311 33.071655c0 12.721085 5.087086 24.592453 13.566311 33.07167c6.784275 6.7842712 15.2635 11.447632 25.016178 13.142578l0 19.505356c-6.784277 1.2712097 -13.144815 4.6633453 -17.808165 9.750427c-6.784277 6.7842712 -10.600152 15.687241 -10.600152 25.863647c0 10.176422 3.815875 19.079391 10.600152 25.863663c6.3605385 6.3605347 15.263498 10.600159 25.016176 10.600159c10.1764145 0 19.079376 -4.239624 25.439919 -10.600159c6.3582916 -6.7842712 10.600151 -15.687241 10.600151 -25.863663c0 -10.176407 -4.2418594 -19.079376 -10.600151 -25.863647c-4.665596 -5.087082 -11.023891 -8.479218 -17.808167 -9.750427l0 -19.505356c9.752674 -1.6949463 18.231903 -6.358307 25.016174 -13.142578c0.84747314 -1.2712097 2.1186905 -2.120926 2.9661636 -3.3921356l16.53695 9.75267c-2.120926 6.7820435 -2.120926 13.990051 -0.42373657 20.774323c2.5424194 8.905212 8.055489 16.960693 16.534714 22.047775c5.936798 3.3921509 12.248016 4.898758 18.435928 4.898758c3.0939484 0 6.1565094 -0.37664795 9.122665 -1.0828705c8.481476 -2.5446777 16.11322 -8.055496 21.200302 -16.534714l0.42373657 -0.8497162c5.08934 -8.479233 5.9368134 -18.653397 3.3921356 -27.558609c-2.1186829 -8.902954 -7.6317444 -16.534698 -16.110962 -21.624039l-0.42373657 -0.42373657c-5.654312 -3.3921356 -11.871368 -4.898758 -18.027878 -4.898758c-3.0782623 0 -6.140831 0.3766632 -9.10923 1.0828857c-6.782036 2.120926 -12.718842 5.5130615 -17.382187 11.023895l-16.536957 -9.7504425c1.6971893 -5.089325 2.9684067 -10.600143 2.9684067 -16.536957c0 -5.934555 -1.2712173 -11.447617 -2.9684067 -16.534706l16.536957 -9.752678c4.6633453 5.513069 10.600151 8.905205 17.382187 11.023888c2.8787155 0.75779724 5.8090134 1.1366959 8.754982 1.1366959c5.3045654 0 10.658447 -1.2263718 15.837463 -3.6813583l0.42373657 0l2.120926 -1.2712097c8.479218 -5.0870895 14.416016 -13.142578 16.534698 -22.047775c2.5446777 -8.902962 1.6972046 -19.079376 -3.3921356 -27.558601l0 -0.42373657c-5.087082 -8.479225 -13.142563 -14.416027 -21.624039 -16.96069c-2.966156 -0.70623016 -6.028717 -1.0828857 -9.106979 -1.0828857c-6.156517 0 -12.373566 1.5066223 -18.027878 4.898758l-0.42373657 0c-8.479225 5.089329 -13.992294 13.144817 -16.534714 22.04778c-1.6971893 6.7842712 -1.6971893 13.992287 0.42373657 20.776566l-16.53695 9.750435c-0.84747314 -1.2712097 -2.1186905 -2.1186829 -2.9661636 -3.3921356c-6.7842712 -6.782036 -15.2635 -11.447632 -25.016174 -13.142578l0 -19.503113c6.784275 -1.2734528 13.1425705 -5.089325 17.808167 -9.752674c6.3582916 -6.784279 10.600151 -15.687237 10.600151 -25.863651c0 -10.174173 -4.2418594 -19.079376 -10.600151 -25.863653c-6.3605423 -6.358297 -15.263504 -10.597909 -25.439919 -10.597909z" fill-rule="evenodd"></path><path fill="#231f20" d="m220.04941 84.3718l0 106.42077l18.65564 0l0 -39.429962l27.984589 39.429962l21.200287 0l-32.64792 -44.093307l32.221954 -34.76886l-22.045532 0l-26.713379 30.103271l0 -57.661873z" fill-rule="evenodd"></path><path fill="#231f20" d="m332.40698 126.77017c11.447632 0 18.65564 6.7842712 21.624023 13.992279c1.6972046 3.3921509 2.5446777 7.6317596 2.1209412 11.023895c0 4.239609 -0.84747314 7.6317444 -2.9684143 11.447632c-3.3921204 6.7842712 -10.176392 12.29509 -20.350586 12.29509c-16.960693 0 -23.744965 -13.990051 -23.744965 -23.742722l0 -0.42373657c0 -11.871368 8.479218 -24.592438 23.319 -24.592438zm-2.5424194 -17.382187c-21.624054 0 -39.43222 16.95845 -39.43222 41.974625c0 22.047775 14.839783 41.974625 39.43222 41.974625c11.023865 0 21.19806 -4.6633453 26.287384 -13.992294l0 11.447632l18.65564 0l0 -78.86217l-18.65564 0l0 11.447624c-3.3921509 -6.3582916 -11.871368 -13.990044 -26.287384 -13.990044z" fill-rule="evenodd"></path><path fill="#231f20" d="m426.53488 82.25088c-13.144806 0.4259796 -30.952972 1.6971893 -30.952972 25.016182l0 4.6633453l-9.326691 0l0 14.416031l9.326691 0l0 64.44614l18.65564 0l0 -64.44614l12.297333 0l0 -14.416031l-12.297333 0l0 -3.8158722c0 -11.447624 7.6317444 -11.447624 12.297333 -11.447624l0 -14.416031z" fill-rule="evenodd"></path><path fill="#231f20" d="m439.25372 84.3718l0 106.42077l18.231903 0l0 -39.429962l27.98233 39.429962l21.200317 0l-32.224213 -44.093307l32.224213 -34.76886l-22.471527 0l-26.71112 30.103271l0 -57.661873z" fill-rule="evenodd"></path><path fill="#231f20" d="m551.61127 126.77017c11.023926 0 18.231934 6.7842712 21.624084 13.992279c1.2711792 3.3921509 2.1186523 7.6317596 2.1186523 11.023895c-0.42370605 4.239609 -1.2711792 7.6317444 -2.9683838 11.447632c-3.815857 6.7842712 -10.5979 12.29509 -20.774353 12.29509c-16.536926 0 -23.742676 -13.990051 -23.742676 -23.742722l0 -0.42373657c0 -11.871368 8.479187 -24.592438 23.742676 -24.592438zm-2.5446167 -17.382187c-22.04779 0 -39.429993 16.95845 -39.429993 41.974625c0 22.047775 14.416016 41.974625 39.429993 41.974625c10.600098 0 21.200256 -4.6633453 25.863647 -13.992294l0 11.447632l18.65564 0l0 -78.86217l-18.65564 0l0 11.447624c-3.3921509 -6.3582916 -11.871399 -13.990044 -25.863647 -13.990044z" fill-rule="evenodd"></path></g></svg>

