<?xml version="1.0" standalone="yes"?>

<svg version="1.1" viewBox="0.0 0.0 959.2152230971128 378.6115485564304" fill="none" stroke="none" stroke-linecap="square" stroke-miterlimit="10" xmlns="http://www.w3.org/2000/svg" xmlns:xlink="http://www.w3.org/1999/xlink"><clipPath id="p.0"><path d="m0 0l959.2152 0l0 378.61154l-959.2152 0l0 -378.61154z" clip-rule="nonzero"></path></clipPath><g clip-path="url(#p.0)"><path fill="#000000" fill-opacity="0.0" d="m0 0l959.2152 0l0 378.61154l-959.2152 0z" fill-rule="evenodd"></path><path fill="#000000" d="m313.9577 119.48192c0 0 0 0 0 0.4023819c-1.2096252 0 -2.8240356 0 -4.436035 0.40483856c1.2096252 -0.40483856 2.8240356 -0.80722046 4.436035 -0.80722046zm3.22641 7.6624146c0.40237427 0.8047638 1.2095947 1.6119843 2.4191895 2.4191895c-7.6624146 0.8047638 -15.727234 1.20961 -23.389648 2.0143585c-14.919983 1.20961 -29.032776 2.8240356 -41.93596 4.0336304l-1.2095947 0c1.2095947 -0.40237427 2.0143585 -1.2095947 3.2239532 -1.611969c9.276855 -0.80722046 19.356018 -2.0168152 28.228027 -2.8240356c10.081604 -1.2095947 19.355988 -2.0168152 26.211212 -3.22641c2.4191895 0 4.4360046 -0.4023819 6.45282 -0.8047638zm102.02078 13.3055725c-0.4024048 0.40483093 -0.80722046 1.2095947 -0.80722046 1.6144257c-4.4360046 0.40238953 -9.274414 0.8047638 -14.515167 1.2095947c-26.616028 2.4192047 -61.294434 4.4360046 -97.58722 6.450363c11.693573 -1.2095947 22.984772 -2.4191895 34.27597 -3.6287842c26.211212 -2.0168152 50.40561 -4.0311737 70.16644 -5.6455994zm6.855194 18.146408l4.0336304 4.838379c-0.80722046 2.0168152 -1.2095947 4.0336304 -1.6144409 6.0504456l-4.031189 -4.0336304c0.4024048 -2.4191895 1.2096252 -4.838394 1.6119995 -6.855194zm-11.291199 -6.45282c-0.4024048 1.2095947 -0.80722046 2.8240204 -1.2096252 4.033615c-30.647186 4.0311737 -85.083954 8.467178 -180.252 13.710403c-29.032776 1.6119843 -58.06555 3.22641 -84.681595 4.4360046c27.825638 -2.0168152 62.906403 -4.838379 107.26401 -8.872009c43.550385 -4.0311737 86.29602 -8.064804 121.3768 -11.693588c14.115234 -0.80722046 26.616028 -1.6144257 37.50241 -1.6144257zm16.936798 13.710388l2.8215637 3.631256c-0.40237427 1.611969 -0.80474854 3.2239532 -1.2095947 4.838379l-2.8215637 -2.8240204c0.40237427 -2.0143585 0.80722046 -3.6287994 1.2095947 -5.6456146zm-83.87439 10.48645l0 0c-22.987244 2.0143585 -47.584015 3.6287842 -72.18323 5.2407684c-12.500824 1.2095947 -25.403992 2.0168152 -37.9048 2.8240356c14.919998 -1.6144409 29.839981 -3.22641 44.35762 -4.43602c6.45282 -0.40483093 12.500793 -0.8072052 18.548767 -1.2095947c1.2095947 0 2.41922 -0.40483093 3.6288147 -0.40483093c16.13205 -0.40237427 30.244812 -1.2095947 43.552826 -2.0143585zm-246.38481 15.724762l0 0c-27.4208 2.4191895 -50.81043 4.0336304 -65.73042 4.4360046c3.6312447 -0.8047638 8.469631 -1.6119843 14.115234 -2.4191895c12.095966 0 28.630394 -0.80722046 51.61519 -2.0168152zm295.38208 -12.709351c-1.1433411 0.15457153 -2.2866821 0.38519287 -3.432495 0.6133728c-40.72635 4.43602 -95.56796 10.483994 -151.21678 16.129608l-153.23358 10.483978c-28.228016 1.2095947 -51.615192 2.4192047 -65.32559 2.8240356c-1.6144314 0 -3.226408 -0.40483093 -4.0336246 -0.40483093c32.261642 -4.838394 160.49362 -14.112793 256.86884 -20.967987c45.145172 -3.1405334 87.99878 -6.281067 120.37326 -8.678177zm-292.15564 43.7614l-87.100784 6.855194c15.322378 -2.8240356 47.986397 -4.8408356 87.100784 -6.855194zm303.24078 1.611969c0 0.40238953 0 0.80722046 0 1.2095947c-30.392029 2.308792 -65.558655 4.9831543 -101.993774 7.6771393l0 0l101.993774 -8.886734zm47.584015 -68.14961c7.257599 0 18.146423 19.760834 18.146423 49.60083c0 14.919998 -2.8240356 27.420792 -6.45282 36.29036l-2.4191895 -5.643158c3.22641 -6.855194 6.0479736 -17.744019 6.0479736 -30.647202c0 -22.984802 -8.064789 -39.116837 -15.322388 -39.116837c-4.0336 0 -8.4696045 5.24321 -11.693573 14.115234l-2.4216614 -5.243225c4.0336304 -12.095978 9.67923 -19.356003 14.115234 -19.356003zm-281.46802 74.60243c-63.036438 5.9866486 -123.918655 11.664154 -150.68927 11.664154c-3.8839588 0 -7.0490303 -0.11778259 -9.399525 -0.37539673c1.2095966 -0.40238953 3.22641 -0.8047638 5.243223 -1.2095947c1.0795574 0.024536133 2.2253628 0.034347534 3.4447746 0.034347534c20.639206 0 61.55695 -3.2165985 131.24004 -9.308746c6.855194 -0.40237427 13.305557 -0.8047638 20.160767 -0.8047638zm281.46802 -62.10164c5.2407837 0 12.903198 14.919998 12.903198 37.100037c0 11.693588 -2.0168152 21.370361 -4.838379 27.823181l-1.6144409 -2.821579l0.80722046 4.0311737c-2.4191895 5.243225 -5.2407837 8.064804 -7.257599 8.064804c-5.2431946 0 -13.308014 -14.919998 -13.308014 -37.09758c0 -22.180038 8.064819 -37.100037 13.308014 -37.100037zm-376.6336 78.23123l-25.403988 2.0143585c-5.6455994 0.40483093 -10.48399 0.40483093 -14.919994 0.40483093c11.291206 -0.8072052 24.596771 -1.6144257 40.323982 -2.4191895zm376.6336 -103.63521c9.274414 0 23.387177 25.001602 23.387177 62.504013c0 18.146408 -3.22641 33.46878 -7.6599426 44.357605l-2.8240356 -5.6455994c4.4360046 -9.276855 7.6624146 -22.987244 7.6624146 -38.712006c0 -29.839996 -10.888824 -52.020035 -20.565613 -52.020035c-5.6455994 0 -11.291199 7.2600403 -15.324829 18.953629l-2.8215637 -5.243225c5.243225 -15.322372 12.500793 -24.194382 18.146393 -24.194382zm-14.517609 33.87361l2.8240356 4.0311737c-2.4216614 6.45282 -3.631256 14.919998 -3.631256 24.599228c0 22.984787 8.064819 39.11438 15.324829 39.11438c2.8215942 0 5.64563 -2.4191895 8.064819 -6.45282l1.611969 7.6624146c-3.22641 6.047989 -6.855194 9.274399 -9.676788 9.274399c-7.26001 0 -18.548767 -19.758377 -18.548767 -49.598373c0 -10.888824 1.611969 -20.565598 4.0311584 -28.630402zm14.517609 -46.776794c11.291229 0 28.630402 30.24237 28.630402 75.407196c0 21.370361 -3.6287842 39.11438 -9.274384 52.422394l-2.4191895 -5.6455994c4.838379 -10.888824 8.467163 -27.018417 8.467163 -46.776794c0 -39.9216 -14.919983 -64.52083 -25.403992 -64.52083c-6.4527893 0 -14.115234 8.064789 -19.355988 23.389633l-2.4191895 -5.243225c6.0479736 -18.146408 14.919983 -29.032776 21.775177 -29.032776zm0 -10.081619c16.531982 0 35.485626 35.08322 35.485626 85.488815c0 25.001602 -4.8384094 46.371964 -11.291229 61.696808l-3.22641 -6.45282c5.6455994 -13.308029 9.67923 -32.2592 9.67923 -55.243988c0 -47.18164 -18.146393 -77.42401 -30.647217 -77.42401c-7.6624146 0 -16.936798 10.081604 -23.389618 28.228012l-3.223938 -6.855194c7.2575684 -18.551254 16.934357 -29.437622 26.613556 -29.437622zm-19.355988 51.212814l3.22641 3.6287842c-2.8240356 8.467178 -4.4360046 18.951172 -4.4360046 30.647217c0 29.839996 10.886383 52.01758 20.565582 52.01758c3.22641 0 7.257599 -3.2264252 10.484009 -8.467194l1.611969 8.064789c-4.0311584 7.257599 -8.467163 10.886383 -12.095978 10.886383c-9.274384 0 -23.791992 -24.999146 -23.791992 -62.501556c0 -10.888824 1.2095947 -20.565598 3.22641 -29.035233l1.2095947 0.40483093l0 0l-1.2095947 -1.2095947c0.40237427 -1.6144257 0.80722046 -3.22641 1.2095947 -4.4360046zm-22.180023 86.29358c0 0.40481567 0.40481567 0.80722046 0.40481567 1.2095947c-25.001587 2.0168152 -64.92319 5.6455994 -128.63681 11.291199c-17.741577 1.6144409 -36.292816 3.22641 -55.243988 4.838379c-30.647202 2.0168152 -62.099182 4.4360046 -93.151215 6.0504456c29.437607 -2.4191895 66.1328 -6.0504456 110.08803 -10.483978c7.2575836 -0.4048462 14.919998 -1.2120667 22.579971 -2.0168152c62.101624 -3.6287842 103.23282 -7.2600403 130.65363 -9.67923c4.838379 -0.40237427 9.274384 -0.80477905 13.3055725 -1.2095947zm15.324829 -81.4552l3.22641 0.40238953c-1.6144409 8.469635 -2.8240356 18.146408 -2.8240356 29.035233c0 39.9216 14.919983 64.92322 25.808807 64.92322c4.031189 0 8.467194 -3.631256 12.500824 -10.0816345l2.0168152 8.064819c-4.840851 8.064789 -10.081604 12.500793 -14.517639 12.500793c-11.693573 0 -29.035217 -30.244827 -29.035217 -75.407196c0 -10.888824 1.2095947 -20.565598 2.8240356 -29.437622zm-326.22803 101.216034l0 0c-29.435158 2.4191895 -53.632 4.0311584 -66.93756 4.0311584c9.676773 -0.40237427 24.19439 -1.2095947 45.162373 -2.8215637c6.8552017 -0.4048462 14.115234 -0.80722046 21.775192 -1.2095947zm318.97043 -102.02324l4.8384094 0.40483093c-1.6144409 8.869553 -2.41922 18.951172 -2.41922 29.839996c0 47.986404 18.146423 77.42157 31.049591 77.42157c4.436035 0 10.0816345 -4.031189 14.920013 -11.288757l1.611969 8.467163c-5.240753 6.855194 -10.886353 10.888824 -16.531982 10.888824c-16.936798 0 -35.485596 -35.08322 -35.485596 -85.4888c0 -10.888824 0.80477905 -20.970444 2.0168152 -30.244827zm-16.13205 100.006424c-19.355988 2.0168152 -46.37195 4.4360046 -83.471985 8.467163c-54.436768 5.243225 -122.98877 12.09845 -178.2352 16.534454c-26.211205 1.2095947 -52.01757 2.4191895 -76.21196 3.6287842c56.051193 -6.45282 210.89677 -18.953644 337.91913 -28.630402zm-92.47403 -209.29214c-7.306671 0 -14.301697 1.9432068 -17.209167 6.8625565c-4.0311584 6.450371 -27.01596 33.87117 -43.95276 47.986404c-6.8552094 5.6455994 -47.986404 12.095963 -84.27922 17.741577c-46.371964 6.855194 -98.79437 14.919983 -131.45839 27.018417l-0.80721664 0.40237427c-22.57996 11.291214 -36.695194 39.114395 -35.887978 69.35922c0.8072157 18.951157 8.872012 64.92322 69.359215 90.32718l2.0143585 0.80722046l2.0168152 -0.40481567c104.0376 -22.177582 293.96884 -22.177582 375.424 -22.177582l6.855194 0c27.015991 0 48.388794 -43.14801 48.388794 -98.392c0 -55.24643 -21.372803 -98.392 -48.388794 -98.392l-0.80718994 0c-1.2095947 0 -2.0168152 0 -3.22641 0.4023819c-3.22641 0.4023819 -7.659973 0.80722046 -12.903198 1.2095947c-28.99353 2.7430649 -96.43161 9.291573 -110.22543 9.291573c-0.4048462 0 -0.7605896 -0.0049057007 -1.0697327 -0.017173767l-0.4048462 0c0.4048462 -3.6287918 4.4360046 -12.09597 6.855194 -17.339195c1.6144409 -3.6287842 3.6287842 -7.6624146 4.8384094 -11.291206c3.22641 -8.064796 -0.4024048 -15.727211 -8.869568 -20.163216c-4.313324 -1.9751053 -10.388306 -3.2313156 -16.262085 -3.2313156z" fill-rule="evenodd"></path><path fill="#000000" d="m455.49768 181.98593c3.22641 0 7.662445 9.676773 7.662445 24.194397c0 14.515167 -4.436035 24.194382 -7.662445 24.194382c-3.22641 0 -8.064789 -9.6792145 -8.064789 -24.194382c0 -14.517624 4.838379 -24.194397 8.064789 -24.194397zm0 -2.0168152c-5.6455994 0 -10.081604 12.095978 -10.081604 26.211212c0 14.112778 4.4360046 26.211197 10.081604 26.211197c5.2407837 0 10.0816345 -12.098419 10.0816345 -26.211197c0 -14.115234 -4.840851 -26.211212 -10.0816345 -26.211212z" fill-rule="evenodd"></path><path fill="#000000" d="m455.49768 192.87231c-3.6287842 0 -4.838379 6.855194 -4.838379 13.308014c0 6.450363 1.2095947 13.305557 4.838379 13.305557c3.22641 0 4.8384094 -6.855194 4.8384094 -13.305557c0 -6.45282 -1.6119995 -13.308014 -4.8384094 -13.308014z" fill-rule="evenodd"></path><path fill="#000000" d="m927.42664 157.23143c0 34.939285 -28.220581 63.15988 -63.162476 63.15988l-188.80804 0c-34.941895 0 -63.162476 -28.220596 -63.162476 -63.15988zm-147.15265 94.74112l0 62.825363c0 5.7099915 4.7038574 10.413849 10.750977 10.413849c5.7125244 0 10.416382 -4.7038574 10.416382 -10.413849c0 -17.469635 14.10907 -31.581238 31.578674 -31.581238c17.135132 0 31.24414 14.111603 31.24414 31.581238l0 41.995087l-20.827698 0l0 -41.995087c0 -5.712555 -4.7038574 -10.416412 -10.416443 -10.416412c-6.047058 0 -10.750916 4.7038574 -10.750916 10.416412c0 17.469635 -14.109009 31.578674 -31.24414 31.578674c-17.469666 0 -31.578674 -14.109039 -31.578674 -31.578674l0 -62.825363zm10.750977 -251.9731c-17.469666 0 -31.578674 14.111584 -31.578674 31.244139l20.827698 0c0 -5.7099934 4.7038574 -10.413855 10.750977 -10.413855c46.027344 0 83.99017 37.62832 83.99017 83.99017l0 12.431267l0 8.736107l-21.164795 0l0 -21.167374l-20.830322 0l0 21.167374l-251.97052 0l0 31.244148c0 52.408936 41.995117 94.74112 94.40662 94.74112l62.822815 0l0 62.825363c0 28.892212 23.519287 52.408936 52.746033 52.408936c11.759644 0 22.51056 -3.69516 31.24414 -10.413849l0 21.164795l63.162415 0l0 -63.15988c0 -28.892212 -23.519287 -52.4115 -52.4115 -52.4115c-12.094177 0 -22.845093 3.6951294 -31.578674 10.416412l0 -20.830276l62.822815 0c52.4115 0 94.74115 -42.332184 94.74115 -94.74112l0 -31.244148l-21.164795 0l0 -21.167374l-20.830322 0l0 21.167374l-21.164795 0l0 -21.167374c0 -57.784416 -47.033447 -104.82046 -104.820435 -104.82046z" fill-rule="evenodd"></path><path fill="#000000" d="m759.4463 52.41097l0 20.83028l20.827698 0l0 -20.83028z" fill-rule="evenodd"></path><path fill="#000000" d="m759.4463 94.40605l0 20.830284l20.827698 0l0 -20.830284z" fill-rule="evenodd"></path></g></svg>

